<svg xmlns="http://www.w3.org/2000/svg" version="1.1" xmlns:xlink="http://www.w3.org/1999/xlink" xmlns:svgjs="http://svgjs.dev/svgjs" width="1500" height="1500" viewBox="0 0 1500 1500"><rect width="1500" height="1500" fill="#570c87"></rect><g transform="matrix(0.6666666666666666,0,0,0.6666666666666666,249.78425655976667,249.78425655976673)"><svg viewBox="0 0 343 343" data-background-color="#570c87" preserveAspectRatio="xMidYMid meet" height="1500" width="1500" xmlns="http://www.w3.org/2000/svg" xmlns:xlink="http://www.w3.org/1999/xlink"><g id="tight-bounds" transform="matrix(1,0,0,1,0.0740000000000407,0.07400000000001228)"><svg viewBox="0 0 342.85155851775386 342.85155851775386" height="342.85155851775386" width="342.85155851775386"><g><svg></svg></g><g><svg viewBox="0 0 342.85155851775386 342.85155851775386" height="342.85155851775386" width="342.85155851775386"><g><path d="M0 171.426c0-94.676 76.75-171.426 171.426-171.426 94.676 0 171.426 76.75 171.426 171.426 0 94.676-76.75 171.426-171.426 171.426-94.676 0-171.426-76.75-171.426-171.426zM171.426 338.363c92.197 0 166.938-74.74 166.937-166.937 0-92.197-74.74-166.938-166.937-166.938-92.197 0-166.938 74.74-166.938 166.938 0 92.197 74.74 166.938 166.938 166.937z" data-fill-palette-color="tertiary" fill="#ffffff" stroke="transparent"></path><ellipse rx="164.56874808852186" ry="164.56874808852186" cx="171.42577925887693" cy="171.42577925887693" fill="#ffffff" stroke="transparent" stroke-width="0" fill-opacity="1" data-fill-palette-color="tertiary"></ellipse></g><g transform="matrix(1,0,0,1,64.84655864529837,106.27598233056912)"><svg viewBox="0 0 213.1584412271571 130.29959385661562" height="130.29959385661562" width="213.1584412271571"><g><svg viewBox="0 0 213.1584412271571 130.29959385661562" height="130.29959385661562" width="213.1584412271571"><g><svg viewBox="0 0 213.1584412271571 130.29959385661562" height="130.29959385661562" width="213.1584412271571"><g transform="matrix(1,0,0,1,0,80.53037636384015)"><svg viewBox="0 0 213.1584412271571 49.76921749277546" height="49.76921749277546" width="213.1584412271571"><g id="textblocktransform"><svg viewBox="0 0 213.1584412271571 49.76921749277546" height="49.76921749277546" width="213.1584412271571" id="textblock"><g><svg viewBox="0 0 213.1584412271571 49.76921749277546" height="49.76921749277546" width="213.1584412271571"><g transform="matrix(1,0,0,1,0,0)"><svg width="213.1584412271571" viewBox="2.6 -34.15 148.71 34.73" height="49.76921749277546" data-palette-color="#570c87"><path d="M14.45 0.58L14.45 0.58Q8.53 0.58 5.56-2.75 2.6-6.08 2.6-12.2L2.6-12.2 2.6-19.78Q2.6-25.9 5.55-29.21 8.5-32.52 14.4-32.52L14.4-32.52Q16.3-32.52 17.86-32.18 19.43-31.83 20.65-31.28 21.88-30.73 22.73-30.13L22.73-30.13 23.08-26.28Q21.6-27.33 19.61-28.11 17.63-28.9 14.95-28.9L14.95-28.9Q10.93-28.9 8.88-26.51 6.83-24.13 6.83-19.73L6.83-19.73 6.83-12.35Q6.83-7.98 8.9-5.56 10.98-3.15 15.1-3.15L15.1-3.15Q17.75-3.15 19.79-3.93 21.83-4.7 23.33-5.83L23.33-5.83 22.98-1.88Q22.13-1.28 20.88-0.7 19.63-0.13 18.01 0.23 16.4 0.58 14.45 0.58ZM32.82 0L28.8 0 28.8-33.13 32.82-33.13 32.82 0ZM43.7 0L39.65 0 39.65-24.4 43.7-24.4 43.7 0ZM40.07-27.45L42.85-34.15 47-34.15 47-34.13 43.4-27.43 40.07-27.43 40.07-27.45ZM70.72 0L66.67 0 66.67-15.18Q66.67-17.15 66.13-18.57 65.59-20 64.38-20.79 63.17-21.58 61.07-21.58L61.07-21.58Q59.14-21.58 57.73-20.85 56.32-20.13 55.44-18.89 54.57-17.65 54.22-16.07L54.22-16.07 53.49-18.95 54.37-18.95Q54.77-20.6 55.77-21.96 56.77-23.33 58.46-24.14 60.14-24.95 62.59-24.95L62.59-24.95Q65.49-24.95 67.28-23.85 69.07-22.75 69.89-20.69 70.72-18.63 70.72-15.63L70.72-15.63 70.72 0ZM54.39 0L50.34 0 50.34-24.4 54.39-24.4 54.22-18.55 54.39-18.32 54.39 0ZM81.12 0L77.07 0 77.07-24.4 81.12-24.4 81.12 0ZM79.09-28.4L79.09-28.4Q77.84-28.4 77.23-29.06 76.62-29.73 76.62-30.88L76.62-30.88 76.62-31Q76.62-32.18 77.23-32.83 77.84-33.48 79.09-33.48L79.09-33.48Q80.34-33.48 80.97-32.83 81.59-32.18 81.59-31L81.59-31 81.59-30.88Q81.59-29.7 80.97-29.05 80.34-28.4 79.09-28.4ZM97.21 0.55L97.21 0.55Q91.96 0.55 89.4-2.29 86.84-5.13 86.84-10.33L86.84-10.33 86.84-14.13Q86.84-19.35 89.41-22.16 91.99-24.98 97.21-24.98L97.21-24.98Q98.76-24.98 100.04-24.69 101.31-24.4 102.33-23.94 103.34-23.48 104.04-22.98L104.04-22.98 104.39-19.45Q103.21-20.35 101.6-20.98 99.99-21.6 97.81-21.6L97.81-21.6Q94.31-21.6 92.6-19.66 90.89-17.73 90.89-14.03L90.89-14.03 90.89-10.43Q90.89-6.8 92.6-4.85 94.31-2.9 97.81-2.9L97.81-2.9Q100.06-2.9 101.7-3.53 103.34-4.15 104.61-5.05L104.61-5.05 104.24-1.48Q103.14-0.73 101.36-0.09 99.59 0.55 97.21 0.55ZM128.01 0L123.99 0 124.16-5.93 124.01-6.55 124.01-14.33 124.04-15.75Q124.04-18.73 122.52-20.15 121.01-21.58 117.74-21.58L117.74-21.58Q115.11-21.58 112.92-20.83 110.74-20.08 109.04-19.07L109.04-19.07 109.41-22.53Q110.36-23.1 111.67-23.66 112.99-24.23 114.67-24.6 116.36-24.98 118.39-24.98L118.39-24.98Q121.01-24.98 122.85-24.34 124.69-23.7 125.82-22.5 126.96-21.3 127.49-19.6 128.01-17.9 128.01-15.8L128.01-15.8 128.01 0ZM115.59 0.53L115.59 0.53Q111.96 0.53 110.02-1.24 108.09-3 108.09-6.28L108.09-6.28 108.09-7Q108.09-10.38 110.17-12.04 112.26-13.7 116.81-14.35L116.81-14.35 124.54-15.45 124.76-12.5 117.31-11.43Q114.51-11.03 113.31-10.06 112.11-9.1 112.11-7.23L112.11-7.23 112.11-6.83Q112.11-4.9 113.3-3.88 114.49-2.85 116.86-2.85L116.86-2.85Q118.96-2.85 120.46-3.58 121.96-4.3 122.89-5.53 123.81-6.75 124.14-8.25L124.14-8.25 124.76-5.5 123.99-5.5Q123.64-3.9 122.67-2.53 121.71-1.15 119.99-0.31 118.26 0.53 115.59 0.53ZM141.83 0.55L141.83 0.55Q138.88 0.55 136.68-0.09 134.48-0.73 133.03-1.48L133.03-1.48 132.66-5.23Q134.48-4.28 136.67-3.58 138.86-2.88 141.63-2.88L141.63-2.88Q144.46-2.88 145.88-3.78 147.31-4.67 147.31-6.45L147.31-6.45 147.31-6.73Q147.31-7.88 146.77-8.63 146.23-9.38 144.83-9.95 143.43-10.53 140.86-11.1L140.86-11.1Q137.78-11.78 136.01-12.69 134.23-13.6 133.47-14.95 132.71-16.3 132.71-18.25L132.71-18.25 132.71-18.48Q132.71-21.68 134.93-23.33 137.16-24.98 141.63-24.98L141.63-24.98Q144.51-24.98 146.62-24.33 148.73-23.68 150.08-22.88L150.08-22.88 150.46-19.45Q148.83-20.4 146.73-21.03 144.63-21.65 142.01-21.65L142.01-21.65Q140.11-21.65 138.93-21.26 137.76-20.88 137.23-20.16 136.71-19.45 136.71-18.45L136.71-18.45 136.71-18.25Q136.71-17.15 137.23-16.39 137.76-15.63 139.12-15.06 140.48-14.5 142.91-13.98L142.91-13.98Q146.03-13.35 147.87-12.48 149.71-11.6 150.51-10.26 151.31-8.93 151.31-6.83L151.31-6.83 151.31-6.4Q151.31-2.95 148.91-1.2 146.51 0.55 141.83 0.55Z" opacity="1" transform="matrix(1,0,0,1,0,0)" fill="#570c87" class="wordmark-text-0" data-fill-palette-color="quaternary" id="text-0"></path></svg></g></svg></g></svg></g></svg></g><g transform="matrix(1,0,0,1,67.05492440778484,0)"><svg viewBox="0 0 79.04859241158744 68.78105857501569" height="68.78105857501569" width="79.04859241158744"><g><svg xmlns="http://www.w3.org/2000/svg" xmlns:xlink="http://www.w3.org/1999/xlink" version="1.1" x="0" y="0" viewBox="5 10.846 90 78.31" enable-background="new 0 0 100 100" xml:space="preserve" height="68.78105857501569" width="79.04859241158744" class="icon-icon-0" data-fill-palette-color="quaternary" id="icon-0"><g fill="#570c87" data-fill-palette-color="quaternary"><path fill="#570c87" d="M50.413 73.269C44.832 72.038 41.113 69.791 39.334 67.528 38.805 66.856 38.468 66.19 38.282 65.544 38.173 65.163 38.105 64.788 38.116 64.429 38.142 63.67 38.468 62.847 39.152 62.038 40.183 60.813 42.048 59.617 44.975 58.678 42.751 58.133 40.792 57.475 39.075 56.731 37.083 57.943 35.839 59.277 35.081 60.531 34.193 62.01 33.959 63.374 33.928 64.283 33.876 65.795 34.282 67.269 35.072 68.666 35.405 69.255 35.799 69.83 36.266 70.389 38.891 73.51 43.565 76.053 49.511 77.366 53.219 78.182 54.888 79.847 54.902 81.135 54.907 81.663 54.622 82.262 54.047 82.848 53.618 83.285 53.025 83.713 52.253 84.103 52.202 84.126 52.149 84.152 52.095 84.175V80.578C51.526 80.195 50.572 79.745 49.061 79.412 48.665 79.323 48.29 79.217 47.905 79.119V84.151C46.013 83.237 45.13 82.078 45.139 81.134 45.146 80.412 45.692 79.58 46.8 78.84A33 33 0 0 1 42.386 77.24C41.393 78.502 40.959 79.863 40.947 81.094 40.921 83.71 42.782 86.933 47.905 88.665 48.434 88.846 48.986 89.011 49.586 89.156H50.452A19 19 0 0 0 52.095 88.678C53.287 88.28 54.305 87.797 55.162 87.261 55.798 86.863 56.359 86.431 56.827 85.984 58.446 84.432 59.106 82.654 59.093 81.093 59.066 78.23 56.771 74.674 50.413 73.269" data-fill-palette-color="quaternary"></path><path fill="#570c87" d="M52.094 70.417V60.047A34 34 0 0 0 49.456 59.561 80 80 0 0 1 47.904 59.301V70.401C48.588 70.63 49.307 70.835 50.048 71.02L50.502 70.899C51.062 70.751 51.586 70.586 52.094 70.417" data-fill-palette-color="quaternary"></path><path fill="#570c87" d="M95 23.954V19.764C81.069 19.764 65.373 11.829 65.216 11.748L63.449 10.846 62.452 12.564C59.878 17.004 55.105 19.764 50 19.764 44.89 19.764 40.12 17.005 37.548 12.564L36.551 10.846 34.782 11.748C34.623 11.829 18.931 19.764 5 19.764V23.954C17.318 23.954 30.387 18.44 34.988 16.302A18.7 18.7 0 0 0 37.145 18.767C33.811 20.754 27.378 24.028 21.143 24.028V28.218C29.516 28.218 37.752 23.416 40.751 21.466A18.6 18.6 0 0 0 47.902 23.831V50.738C48.844 50.954 49.782 51.133 50.695 51.269 51.175 51.34 51.64 51.417 52.093 51.498V23.831A18.6 18.6 0 0 0 59.246 21.466C62.242 23.416 70.48 28.218 78.853 28.218V24.028C72.616 24.028 66.183 20.752 62.854 18.764A19 19 0 0 0 65.01 16.302C69.612 18.439 82.681 23.954 95 23.954" data-fill-palette-color="quaternary"></path><path fill="#570c87" d="M64.295 30.441C63.915 30.302 60.504 29.143 57.863 30.673 56.905 31.229 55.687 32.354 55.301 34.575L59.433 35.291C59.563 34.535 59.853 34.364 59.961 34.301 60.644 33.9 62.104 34.113 62.8 34.354 65.793 35.562 67.488 38.398 67.112 41.584 66.67 45.333 63.198 49.736 55.08 52.146 57.485 52.765 59.456 53.53 61.065 54.383 69.512 50.353 71.012 44.28 71.272 42.073 71.866 37.036 69.093 32.371 64.295 30.441" data-fill-palette-color="quaternary"></path><path fill="#570c87" d="M50.386 53.342C38.322 51.537 33.455 46.084 32.927 41.586 32.551 38.402 34.241 35.562 37.155 34.386A6 6 0 0 1 38.986 34.08C39.412 34.08 39.806 34.142 40.073 34.3 40.184 34.365 40.474 34.536 40.605 35.29L44.733 34.573C44.348 32.356 43.129 31.227 42.174 30.675 41.153 30.082 40.015 29.891 38.978 29.891 37.337 29.891 35.949 30.367 35.67 30.469 30.945 32.373 28.17 37.035 28.763 42.076 29.106 45.007 31.641 54.774 49.764 57.487 58.594 58.806 61.833 61.939 61.919 64.425 62.005 66.897 59.218 70.023 53.715 72.072 55.559 72.772 57.015 73.672 58.128 74.682 63.215 72.058 66.243 68.287 66.107 64.281 66.022 61.687 64.309 55.424 50.386 53.342" data-fill-palette-color="quaternary"></path></g></svg></g></svg></g><g></g></svg></g></svg></g></svg></g></svg></g><defs></defs></svg><rect width="342.85155851775386" height="342.85155851775386" fill="none" stroke="none" visibility="hidden"></rect></g></svg></g></svg>